<svg viewBox="0 0 792 792" xmlns="http://www.w3.org/2000/svg"><path d="M325.8 700.34c3.061-.31 4.452-31.517 32.88-31.145-.298.246 11.393-41.748 13.216-58.742 1.847-17.054-10.65-45.575-10.863-46.871 1.969-3.017-15.587-20.642 41.893-106.73 63.574-90.318 71.383-102.16 72.659-116.31-21.396 29.088-63.804 57.148-63.593 57.104.165-.056 40.316-45.434 88.608-100.85 46.438-54.352 101.02-118.75 87.175-132.29-20.07 37.424-64.657 62.943-64.541 62.987 69.731-75.566 95.799-137.13 96.727-174.7C622.13 14.408 599.156.031 599.532.022c1.567-1.443-94.325 50.314-179.67 117.75-86.941 67.42-163.33 150.51-159.65 211.3-9.552-4.659-34.107-.576-34.141-.5.765-.84-25.203 28.493-40.694 71.393-16.103 43.357-21.72 100.28 5.602 165.24-.271.324 7.704 19.811 25.94 45.044 17.801 25.728 45.86 57.213 75.649 92.825.08-.084 8.056 12.875 10.623 14.784 2.783 1.694 9.512 17.156 9.427 17.232-.03.035.402 6.637 5.913 13.466 3.766 11.56 7.122 23.509 10.063 35.84.056-.054 8.529 9.075 9.907 7.373 1.474-1.799-3.156-23.16-7.874-39.679-.267-7.838-5.398-25.98-5.485-25.892.024-.017-2.045-25.471.658-25.871zm-18.326-22.418c-18.854-46.991-31.333-92.688-29.515-142.74 1.342-49.668 16.976-103.69 43.417-158.54 25.965-54.463 62.736-109.74 95.446-153.12 32.233-42.995 60.404-74.088 58.246-71.37-31.4 55.739-108.08 148.8-147.57 237.44-43.022 91.496-48.846 178.57-20.028 288.33z" fill="#122932"/></svg>